<svg id="Layer_1" data-name="Layer 1" xmlns="http://www.w3.org/2000/svg" xmlns:xlink="http://www.w3.org/1999/xlink" viewBox="0 0 490.48 490.48"><defs><style>.cls-1{fill:url(#Unbenannter_Verlauf_4);}.cls-2{fill:url(#Unbenannter_Verlauf_5);}</style><linearGradient id="Unbenannter_Verlauf_4" x1="424.07" y1="424.07" x2="87.6" y2="87.6" gradientUnits="userSpaceOnUse"><stop offset="0" stop-color="#99c13c"/><stop offset="1" stop-color="#53b0c5"/></linearGradient><linearGradient id="Unbenannter_Verlauf_5" x1="101.41" y1="258.75" x2="451.54" y2="255.87" gradientTransform="matrix(1, 0, 0, -1, -10.76, 502.72)" gradientUnits="userSpaceOnUse"><stop offset="0" stop-color="#53b0c5"/><stop offset="1" stop-color="#99c13c"/></linearGradient></defs><title>logo</title><path class="cls-1" d="M256,10.76C120.47,10.76,10.76,120.47,10.76,256S120.47,501.24,256,501.24,501.24,391.53,501.24,256,391.53,10.76,256,10.76Zm0,461.08C137,471.84,40.16,375.39,40.16,256,40.16,137,136.61,40.16,256,40.16c119,0,215.84,96.45,215.84,215.84C471.84,375,375.39,471.84,256,471.84Z" transform="translate(-10.76 -10.76)"/><polygon class="cls-2" points="227.31 142.34 260.65 142.34 263.16 142.34 263.16 142.34 370.73 284.68 370.73 142.34 406.58 142.34 406.58 348.14 376.46 348.14 263.16 198.63 263.16 348.14 263.16 348.14 232.69 348.14 227.31 348.14 227.31 348.14 119.75 201.85 119.75 348.14 83.9 348.14 83.9 142.34 117.24 142.34 227.31 291.85 227.31 142.34"/></svg>